<?xml version="1.0" encoding="utf-8"?><svg viewBox="0 0 33 26" xmlns="http://www.w3.org/2000/svg" xmlns:xlink="http://www.w3.org/1999/xlink"><style>:root>svg{display:none}:root>svg:target{display:block}</style><svg fill="none" viewBox="0 0 33 25" id="checkmark" xmlns="http://www.w3.org/2000/svg"><path d="M11.72 25a2 2 0 0 1-1.46-.64L.54 14.02a2.002 2.002 0 1 1 2.92-2.74l8.24 8.78 16.82-18.4a2 2 0 1 1 2.96 2.68l-18.28 20a2 2 0 0 1-1.46.66h-.02Z" fill="#822740"/></svg><svg fill="none" viewBox="0 0 16 9" id="chevron-down" xmlns="http://www.w3.org/2000/svg"><path d="m15.7.48-.247-.246a.405.405 0 0 0-.598 0L8 7.09 1.11.234a.405.405 0 0 0-.598 0L.266.48a.405.405 0 0 0 0 .598l7.418 7.418a.405.405 0 0 0 .597 0L15.7 1.078a.405.405 0 0 0 0-.598Z" fill="#A93B59"/></svg><svg fill="none" viewBox="0 0 30 26" id="favorite" xmlns="http://www.w3.org/2000/svg"><path d="M26.266 2.945C23.258.43 18.828.813 16.039 3.711L15 4.805 13.906 3.71C11.664 1.414 7.18-.008 3.68 2.945.234 5.898.07 11.148 3.133 14.32l10.61 10.938c.327.328.765.492 1.202.492.492 0 .93-.164 1.258-.492l10.61-10.938c3.062-3.172 2.898-8.422-.547-11.375Zm-.711 10.172L15 24.055 4.39 13.117c-2.077-2.187-2.515-6.289.438-8.805 3.008-2.57 6.508-.71 7.82.602L15 7.32l2.297-2.406c1.258-1.312 4.812-3.172 7.82-.601 2.953 2.515 2.516 6.617.438 8.804Z" fill="#B02E51"/></svg><svg fill="none" viewBox="0 0 24 24" id="phone" xmlns="http://www.w3.org/2000/svg"><path d="M18.443 24A18.449 18.449 0 0 1 5.41 18.58 18.523 18.523 0 0 1 0 5.52c0-1.464.58-2.868 1.614-3.903A5.503 5.503 0 0 1 5.509 0c.31-.002.618.026.922.084.294.044.583.116.862.216a1.198 1.198 0 0 1 .779.9l1.64 7.2a1.202 1.202 0 0 1-.31 1.104c-.156.168-.168.18-1.642.948a11.88 11.88 0 0 0 5.833 5.868c.778-1.488.79-1.5.958-1.656a1.197 1.197 0 0 1 1.102-.312l7.185 1.644a1.197 1.197 0 0 1 .863.78A5.21 5.21 0 0 1 24 18.564a5.525 5.525 0 0 1-1.66 3.866A5.504 5.504 0 0 1 18.443 24Z" fill="#827679"/></svg><svg fill="none" viewBox="0 0 15 14" id="seed" xmlns="http://www.w3.org/2000/svg"><path d="M1.875 2.688H0A6.552 6.552 0 0 0 6.563 9.25v4.219c0 .263.205.469.468.469h.938a.482.482 0 0 0 .468-.47V9.25c0-3.604-2.958-6.563-6.562-6.563ZM13.125.812a6.536 6.536 0 0 0-5.742 3.399A7.504 7.504 0 0 1 9.11 7.346C12.421 7.023 15 4.21 15 .812h-1.875Z" fill="#fff"/></svg><svg fill="none" viewBox="0 0 18 22" id="user" xmlns="http://www.w3.org/2000/svg"><path d="M9 9.534A4.666 4.666 0 1 0 9 .2a4.666 4.666 0 0 0 0 9.333ZM16 21.2a1.167 1.167 0 0 0 1.167-1.167 8.167 8.167 0 0 0-16.334 0A1.167 1.167 0 0 0 2 21.2h14Z" fill="#6F6567"/></svg><svg fill="none" viewBox="0 0 11 16" id="water" xmlns="http://www.w3.org/2000/svg"><path d="M6.006 1.549c-.235-.85-1.465-.908-1.729 0C2.93 6.149 0 7.409 0 10.66c0 2.9 2.285 5.215 5.156 5.215 2.842 0 5.157-2.315 5.157-5.215 0-3.252-2.93-4.482-4.307-9.111ZM5.156 14a3.276 3.276 0 0 1-3.281-3.281c0-.235.205-.469.469-.469.234 0 .469.234.469.469a2.314 2.314 0 0 0 2.343 2.344c.235 0 .469.234.469.468a.482.482 0 0 1-.469.469Z" fill="#fff"/></svg></svg>